<svg width="600" height="400" xmlns="http://www.w3.org/2000/svg">
    <!-- 样式定义 -->
    <style>
        .node { fill: white; stroke: #333; stroke-width: 2; }
        .text { font-family: Arial; font-size: 14px; text-anchor: middle; fill: #333; }
        .line { stroke: #666; stroke-width: 1.5; }
        .step { font-family: Arial; font-size: 13px; fill: #666; }
        .char { font-family: Arial; font-size: 12px; fill: #0066cc; }
    </style>
    
    <!-- 最终的哈夫曼树 -->
    <!-- 根节点 -->
    <circle cx="200" cy="50" r="20" class="node"/>
    <text x="200" y="55" class="text">100</text>
    
    <!-- 第二层 -->
    <line x1="200" y1="70" x2="120" y2="120" class="line"/>
    <line x1="200" y1="70" x2="280" y2="120" class="line"/>
    
    <circle cx="120" cy="130" r="20" class="node"/>
    <text x="120" y="135" class="text">55</text>
    
    <circle cx="280" cy="130" r="20" class="node"/>
    <text x="280" y="135" class="text">45</text>
    <text x="280" y="150" class="char">A</text>
    
    <!-- 第三层 -->
    <line x1="120" y1="150" x2="80" y2="200" class="line"/>
    <line x1="120" y1="150" x2="160" y2="200" class="line"/>
    
    <circle cx="80" cy="210" r="20" class="node"/>
    <text x="80" y="215" class="text">25</text>
    
    <circle cx="160" cy="210" r="20" class="node"/>
    <text x="160" y="215" class="text">30</text>
    
    <!-- 第四层 -->
    <line x1="80" y1="230" x2="40" y2="280" class="line"/>
    <line x1="80" y1="230" x2="100" y2="280" class="line"/>
    <line x1="160" y1="230" x2="140" y2="280" class="line"/>
    <line x1="160" y1="230" x2="180" y2="280" class="line"/>
    
    <circle cx="40" cy="290" r="20" class="node"/>
    <text x="40" y="295" class="text">12</text>
    <text x="40" y="310" class="char">C</text>
    
    <circle cx="100" cy="290" r="20" class="node"/>
    <text x="100" y="295" class="text">13</text>
    <text x="100" y="310" class="char">B</text>
    
    <circle cx="140" cy="290" r="20" class="node"/>
    <text x="140" y="295" class="text">14</text>
    
    <circle cx="180" cy="290" r="20" class="node"/>
    <text x="180" y="295" class="text">16</text>
    <text x="180" y="310" class="char">D</text>
    
    <!-- 第五层 -->
    <line x1="140" y1="310" x2="120" y2="340" class="line"/>
    <line x1="140" y1="310" x2="160" y2="340" class="line"/>
    
    <circle cx="120" cy="350" r="20" class="node"/>
    <text x="120" y="355" class="text">5</text>
    <text x="120" y="370" class="char">F</text>
    
    <circle cx="160" cy="350" r="20" class="node"/>
    <text x="160" y="355" class="text">9</text>
    <text x="160" y="370" class="char">E</text>
    
    <!-- 步骤说明 -->
    <text x="380" y="50" class="step">步骤5: 最终合并</text>
    <text x="380" y="130" class="step">步骤4: A(45)待合并</text>
    <text x="380" y="210" class="step">步骤3: CB(25)+FED(30)</text>
    <text x="380" y="290" class="step">步骤2: C+B, FE+D</text>
    <text x="380" y="350" class="step">步骤1: F+E</text>
</svg>